<?xml version="1.0" standalone="no"?>
<!DOCTYPE svg PUBLIC "-//W3C//DTD SVG 20010904//EN"
 "http://www.w3.org/TR/2001/REC-SVG-20010904/DTD/svg10.dtd">
<svg version="1.0" xmlns="http://www.w3.org/2000/svg"
 width="128.000000pt" height="128.000000pt" viewBox="0 0 128.000000 128.000000"
 preserveAspectRatio="xMidYMid meet">
<metadata>
Created by potrace 1.11, written by Peter Selinger 2001-2013
</metadata>
<g transform="translate(0.000000,128.000000) scale(0.100000,-0.100000)"
fill="#000000" stroke="none">
<path d="M196 1253 c-34 -10 -64 -30 -102 -67 -83 -83 -82 -81 -80 -571 1
-410 2 -421 23 -465 26 -54 58 -89 110 -121 l38 -24 454 -3 c444 -3 454 -2
497 18 55 27 121 101 134 151 7 24 10 199 8 481 l-3 443 -29 46 c-30 47 -102
104 -146 116 -14 4 -212 8 -440 9 -344 2 -423 0 -464 -13z"/>
</g>
</svg>
